<svg width="646" height="646" viewBox="0 0 646 646" fill="none" xmlns="http://www.w3.org/2000/svg">
<g filter="url(#filter0_f_2_94)">
<path fill-rule="evenodd" clip-rule="evenodd" d="M520.559 383.645C532.434 391.845 546.834 396.647 562.356 396.647C603.031 396.647 636.003 363.674 636.003 323C636.003 282.325 603.031 249.353 562.356 249.353C546.838 249.353 532.44 254.153 520.567 262.349C471.124 289.402 369.033 314.407 369.033 314.407L369.033 331.591C369.033 331.591 471.113 356.593 520.559 383.645Z" fill="#EB5A35"/>
<path fill-rule="evenodd" clip-rule="evenodd" d="M419.814 505.579C422.413 519.772 429.2 533.35 440.175 544.325C468.936 573.086 515.567 573.086 544.328 544.325C573.089 515.564 573.089 468.933 544.328 440.172C533.354 429.198 519.778 422.411 505.586 419.812C451.495 403.979 361.627 349.473 361.627 349.473L349.476 361.624C349.476 361.624 403.98 451.487 419.814 505.579Z" fill="#EB5A35"/>
<path fill-rule="evenodd" clip-rule="evenodd" d="M262.356 520.558C254.158 532.432 249.356 546.831 249.356 562.352C249.356 603.027 282.329 636 323.003 636C363.678 636 396.65 603.027 396.65 562.352C396.65 546.833 391.85 532.434 383.652 520.561C356.6 471.117 331.596 369.029 331.596 369.029L314.411 369.029C314.411 369.029 289.408 471.113 262.356 520.558Z" fill="#EB5A35"/>
<path fill-rule="evenodd" clip-rule="evenodd" d="M140.424 419.811C126.23 422.41 112.653 429.197 101.678 440.172C72.9167 468.933 72.9167 515.564 101.678 544.325C130.439 573.086 177.069 573.086 205.83 544.325C216.804 533.35 223.591 519.775 226.191 505.582C242.024 451.491 296.53 361.624 296.53 361.624L284.379 349.473C284.379 349.473 194.515 403.977 140.424 419.811Z" fill="#EB5A35"/>
<path fill-rule="evenodd" clip-rule="evenodd" d="M125.443 262.354C113.569 254.155 99.1682 249.353 83.6461 249.353C42.9719 249.353 9.99903 282.326 9.99903 323C9.99903 363.674 42.9719 396.647 83.646 396.647C99.1649 396.647 113.563 391.847 125.436 383.65C174.879 356.597 276.969 331.592 276.969 331.592L276.969 314.408C276.969 314.408 174.889 289.406 125.443 262.354Z" fill="#EB5A35"/>
<path fill-rule="evenodd" clip-rule="evenodd" d="M226.188 140.422C223.589 126.229 216.802 112.651 205.827 101.676C177.066 72.9151 130.435 72.9151 101.674 101.676C72.913 130.437 72.913 177.068 101.674 205.829C112.648 216.803 126.223 223.589 140.415 226.189C194.506 242.021 284.375 296.528 284.375 296.528L296.526 284.377C296.526 284.377 242.022 194.514 226.188 140.422Z" fill="#EB5A35"/>
<path fill-rule="evenodd" clip-rule="evenodd" d="M383.645 125.443C391.844 113.569 396.646 99.1687 396.646 83.6475C396.646 42.9733 363.673 10.0004 322.999 10.0004C282.324 10.0004 249.352 42.9733 249.352 83.6474C249.352 99.1672 254.152 113.566 262.349 125.439C289.402 174.883 314.406 276.971 314.406 276.971L331.591 276.971C331.591 276.971 356.593 174.888 383.645 125.443Z" fill="#EB5A35"/>
<path fill-rule="evenodd" clip-rule="evenodd" d="M505.583 226.188C519.777 223.59 533.354 216.803 544.329 205.827C573.09 177.066 573.09 130.436 544.329 101.675C515.568 72.9138 468.938 72.9138 440.177 101.675C429.202 112.649 422.416 126.225 419.816 140.417C403.983 194.508 349.477 284.376 349.477 284.376L361.628 296.527C361.628 296.527 451.492 242.023 505.583 226.188Z" fill="#EB5A35"/>
<path d="M317.149 264.663C317.745 257.483 328.254 257.483 328.85 264.663C329.337 270.542 337.219 272.11 339.919 266.865C343.217 260.459 352.926 264.481 350.729 271.342C348.929 276.96 355.611 281.425 360.113 277.613C365.611 272.956 373.042 280.388 368.386 285.886C364.574 290.388 369.039 297.069 374.657 295.27C381.518 293.072 385.54 302.782 379.134 306.08C373.889 308.78 375.457 316.662 381.336 317.149C388.516 317.745 388.516 328.254 381.336 328.85C375.457 329.337 373.889 337.219 379.134 339.919C385.54 343.217 381.518 352.926 374.657 350.729C369.039 348.929 364.574 355.611 368.386 360.113C373.042 365.611 365.611 373.042 360.113 368.386C355.611 364.574 348.929 369.038 350.729 374.656C352.926 381.518 343.217 385.54 339.919 379.134C337.219 373.889 329.337 375.457 328.85 381.336C328.254 388.516 317.745 388.516 317.149 381.336C316.662 375.457 308.78 373.889 306.08 379.134C302.782 385.54 293.073 381.518 295.27 374.656C297.07 369.038 290.388 364.574 285.886 368.386C280.388 373.042 272.957 365.611 277.613 360.113C281.425 355.611 276.96 348.929 271.342 350.729C264.481 352.926 260.459 343.217 266.865 339.919C272.11 337.219 270.542 329.337 264.663 328.85C257.483 328.254 257.483 317.745 264.663 317.149C270.542 316.662 272.11 308.78 266.865 306.08C260.459 302.782 264.481 293.072 271.342 295.27C276.96 297.069 281.425 290.388 277.613 285.886C272.957 280.388 280.388 272.956 285.886 277.613C290.388 281.425 297.07 276.96 295.27 271.342C293.073 264.481 302.782 260.459 306.08 266.865C308.78 272.11 316.662 270.542 317.149 264.663Z" fill="#F4B442"/>
<path d="M391.352 254.649L323.001 322.999" stroke="#DC8433" stroke-width="4.60294"/>
<circle cx="391.352" cy="254.649" r="13.8088" transform="rotate(45 391.352 254.649)" fill="#F4B442"/>
<path d="M412.303 286.008L322.999 322.999" stroke="#DC8433" stroke-width="4.60294"/>
<circle cx="412.305" cy="286.008" r="13.8088" transform="rotate(67.5 412.305 286.008)" fill="#F4B442"/>
<path d="M419.662 322.999L323 322.999" stroke="#DC8433" stroke-width="4.60294"/>
<circle cx="419.662" cy="322.999" r="13.8088" transform="rotate(90 419.662 322.999)" fill="#F4B442"/>
<path d="M412.304 359.99L323 322.999" stroke="#DC8433" stroke-width="4.60294"/>
<circle cx="412.305" cy="359.99" r="13.8088" transform="rotate(112.5 412.305 359.99)" fill="#F4B442"/>
<path d="M391.352 391.349L323.001 322.999" stroke="#DC8433" stroke-width="4.60294"/>
<circle cx="391.349" cy="391.349" r="13.8088" transform="rotate(135 391.349 391.349)" fill="#F4B442"/>
<path d="M359.99 412.304L322.999 323" stroke="#DC8433" stroke-width="4.60294"/>
<circle cx="359.991" cy="412.304" r="13.8088" transform="rotate(157.5 359.991 412.304)" fill="#F4B442"/>
<path d="M323 419.661L323 322.999" stroke="#DC8433" stroke-width="4.60294"/>
<circle cx="323" cy="419.661" r="13.8088" transform="rotate(180 323 419.661)" fill="#F4B442"/>
<path d="M286.01 412.303L323.001 322.999" stroke="#DC8433" stroke-width="4.60294"/>
<circle cx="286.012" cy="412.303" r="13.8088" transform="rotate(-157.5 286.012 412.303)" fill="#F4B442"/>
<path d="M254.652 391.349L323.003 322.999" stroke="#DC8433" stroke-width="4.60294"/>
<circle cx="254.652" cy="391.35" r="13.8088" transform="rotate(-135 254.652 391.35)" fill="#F4B442"/>
<path d="M233.701 359.99L323.005 322.999" stroke="#DC8433" stroke-width="4.60294"/>
<circle cx="233.698" cy="359.99" r="13.8088" transform="rotate(-112.5 233.698 359.99)" fill="#F4B442"/>
<path d="M226.338 322.999L323 322.999" stroke="#DC8433" stroke-width="4.60294"/>
<circle cx="226.338" cy="322.999" r="13.8088" transform="rotate(-90 226.338 322.999)" fill="#F4B442"/>
<path d="M233.701 286.009L323.005 323" stroke="#DC8433" stroke-width="4.60294"/>
<circle cx="233.7" cy="286.009" r="13.8088" transform="rotate(-67.5 233.7 286.009)" fill="#F4B442"/>
<path d="M254.652 254.649L323.003 322.999" stroke="#DC8433" stroke-width="4.60294"/>
<circle cx="254.655" cy="254.649" r="13.8088" transform="rotate(-45 254.655 254.649)" fill="#F4B442"/>
<path d="M286.015 233.695L323.005 322.999" stroke="#DC8433" stroke-width="4.60294"/>
<circle cx="286.015" cy="233.696" r="13.8088" transform="rotate(-22.5 286.015 233.696)" fill="#F4B442"/>
<path d="M323.004 226.337V322.999" stroke="#DC8433" stroke-width="4.60294"/>
<circle cx="323.005" cy="226.337" r="13.8088" fill="#F4B442"/>
<path d="M359.99 233.695L322.999 322.999" stroke="#DC8433" stroke-width="4.60294"/>
<circle cx="359.988" cy="233.695" r="13.8088" transform="rotate(22.5 359.988 233.695)" fill="#F4B442"/>
</g>
<defs>
<filter id="filter0_f_2_94" x="0.793145" y="0.793939" width="644.416" height="644.412" filterUnits="userSpaceOnUse" color-interpolation-filters="sRGB">
<feFlood flood-opacity="0" result="BackgroundImageFix"/>
<feBlend mode="normal" in="SourceGraphic" in2="BackgroundImageFix" result="shape"/>
<feGaussianBlur stdDeviation="4.60294" result="effect1_foregroundBlur_2_94"/>
</filter>
</defs>
</svg>
