<svg width="203" height="199" viewBox="0 0 203 199" fill="none" xmlns="http://www.w3.org/2000/svg">
<path fill-rule="evenodd" clip-rule="evenodd" d="M101.191 53.1963C118.34 61.9936 137.654 79.2222 154.226 102.033C184.681 143.949 177.997 174.479 150.861 167.95C148.891 195.624 117.584 192.698 87.1296 150.781C71.2127 128.874 60.9738 106.153 57.4709 87.5313L43.9628 31.354C42.5688 25.5566 48.8893 20.9743 53.9658 24.1018L101.191 53.1963Z" fill="#C86EAC"/>
<path fill-rule="evenodd" clip-rule="evenodd" d="M145.175 85.2505C142.107 104.279 131.69 127.971 115.117 150.781C84.6631 192.698 53.5628 195.775 51.3864 167.95C24.4577 174.628 17.5663 143.949 48.0206 102.033C63.9375 80.1248 82.3823 63.3659 99.0099 54.2801L148.264 24.0734C153.346 20.9562 159.658 25.5513 158.252 31.3458L145.175 85.2505Z" fill="#C86EAC"/>
<path fill-rule="evenodd" clip-rule="evenodd" d="M128.281 136.988C109.236 139.951 83.4848 137.365 56.6694 128.652C7.39331 112.641 -5.1439 84.0142 20.6473 73.3457C5.97411 49.7989 33.022 33.7644 82.2981 49.7752C108.052 58.1432 129.691 70.5065 143.47 83.5126L187.418 121.021C191.954 124.892 189.534 132.314 183.588 132.768L128.281 136.988Z" fill="#C86EAC"/>
<path fill-rule="evenodd" clip-rule="evenodd" d="M73.8554 136.91C65.1524 119.712 59.6543 94.4222 59.6543 66.2269C59.6543 14.4149 83.0062 -6.35496 101.122 14.8772C118.983 -6.35421 142.59 14.4149 142.59 66.2269C142.59 93.3064 137.519 117.706 129.407 134.83L107.315 188.218C105.036 193.728 97.2288 193.72 94.9602 188.206L73.8554 136.91Z" fill="#C86EAC"/>
<path fill-rule="evenodd" clip-rule="evenodd" d="M57.1128 85.1234C70.779 71.5321 93.1324 58.4881 119.948 49.7752C169.224 33.7644 196.193 49.5552 181.599 73.3458C207.31 83.7709 194.853 112.641 145.576 128.652C119.822 137.02 95.0496 139.737 76.257 137.314L18.655 132.801C12.7106 132.335 10.3057 124.908 14.8489 121.047L57.1128 85.1234Z" fill="#C86EAC"/>
<path d="M94.5385 62.7893C95.4679 55.6243 105.841 55.6243 106.77 62.7893V62.7893C107.439 67.9452 113.796 70.0107 117.367 66.2326V66.2326C122.331 60.9823 130.723 67.0793 127.263 73.4222V73.4222C124.774 77.9865 128.702 83.394 133.813 82.4368V82.4368C140.914 81.1066 144.119 90.9717 137.592 94.0698V94.0698C132.895 96.2991 132.895 102.983 137.592 105.212V105.212C144.119 108.31 140.914 118.176 133.813 116.845V116.845C128.702 115.888 124.774 121.296 127.263 125.86V125.86C130.723 132.203 122.331 138.3 117.367 133.05V133.05C113.796 129.272 107.439 131.337 106.77 136.493V136.493C105.841 143.658 95.4679 143.658 94.5385 136.493V136.493C93.8697 131.337 87.5128 129.272 83.9411 133.05V133.05C78.9778 138.3 70.586 132.203 74.0455 125.86V125.86C76.535 121.296 72.6063 115.888 67.496 116.845V116.845C60.3945 118.176 57.1891 108.31 63.7162 105.212V105.212C68.4131 102.983 68.4131 96.2991 63.7162 94.0698V94.0698C57.1891 90.9717 60.3945 81.1066 67.496 82.4368V82.4368C72.6063 83.394 76.535 77.9865 74.0455 73.4222V73.4222C70.586 67.0793 78.9778 60.9823 83.9411 66.2326V66.2326C87.5128 70.0107 93.8697 67.9452 94.5385 62.7893V62.7893Z" fill="#F4B442"/>
<path d="M128.541 83.688L72.953 115.782" stroke="#DC8433" stroke-width="2" stroke-linecap="round"/>
<path d="M132.842 99.7349L68.6543 99.7349" stroke="#DC8433" stroke-width="2" stroke-linecap="round"/>
<path d="M128.541 115.782L72.953 83.688" stroke="#DC8433" stroke-width="2" stroke-linecap="round"/>
<path d="M116.795 127.529L84.7012 71.9409" stroke="#DC8433" stroke-width="2" stroke-linecap="round"/>
<path d="M100.748 131.829L100.748 67.6411" stroke="#DC8433" stroke-width="2" stroke-linecap="round"/>
<path d="M84.7012 127.529L116.795 71.9409" stroke="#DC8433" stroke-width="2" stroke-linecap="round"/>
<path d="M72.9551 115.782L128.543 83.688" stroke="#DC8433" stroke-width="2" stroke-linecap="round"/>
<path d="M68.6543 99.7349H132.842" stroke="#DC8433" stroke-width="2" stroke-linecap="round"/>
<path d="M72.9531 83.688L128.541 115.782" stroke="#DC8433" stroke-width="2" stroke-linecap="round"/>
<path d="M84.7002 71.9409L116.794 127.529" stroke="#DC8433" stroke-width="2" stroke-linecap="round"/>
</svg>
